<?xml version="1.0" encoding="UTF-8" standalone="no"?>
<svg width="236px" height="77px" viewBox="0 0 236 77" version="1.1" xmlns="http://www.w3.org/2000/svg" xmlns:xlink="http://www.w3.org/1999/xlink">
    <!-- Generator: Sketch 39.1 (31720) - http://www.bohemiancoding.com/sketch -->
    <title>Logo</title>
    <desc>Created with Sketch.</desc>
    <defs></defs>
    <g id="Page-1" stroke="none" stroke-width="1" fill="none" fill-rule="evenodd">
        <g id="02-Desktop-HD" transform="translate(-291.000000, -35.000000)" fill="#E6E6E6">
            <g id="Header">
                <g id="Logo" transform="translate(291.000000, 35.000000)">
                    <path d="M236,11.7275361 C236,11.7275361 235.764714,11.2745953 233.983338,11.4101249 C232.446239,11.5270128 230.759775,12.1618353 229.992974,12.3840231 C229.225673,12.6057072 227.154061,13.6103389 226.512646,13.9307731 C225.873728,14.2517111 224.486492,15.089576 224.193259,15.2900993 C223.903024,15.4936455 212.655773,23.1639132 212.655773,23.1639132 L204.741486,17.841481 L189.234617,4.00487043 C189.234617,4.00487043 188.357916,3.93383078 187.514684,4.33437352 C186.667956,4.73491627 185.329675,5.35462391 185.329675,5.35462391 C185.329675,5.35462391 185.622908,5.3359823 186.078493,5.82267952 C186.533578,6.30988057 203.504113,29.5091148 203.504113,29.5091148 C203.504113,29.5091148 201.973508,30.6769866 201.178732,31.3057632 C200.381459,31.9345397 197.958167,34.2178853 197.958167,34.2178853 L197.350221,33.3427372 C197.350221,33.3427372 197.683418,32.9885465 197.854262,32.8066649 C198.022608,32.6278061 198.251899,32.2242404 198.251899,32.2242404 L196.849178,30.1686248 C196.849178,30.1686248 196.629378,30.0734015 195.902041,30.3938357 C195.174704,30.7112469 194.386422,31.1238815 192.489151,32.5754081 C190.75623,33.8974511 188.574718,36.0885962 188.574718,36.0885962 L189.769629,37.8575341 C189.769629,37.8575341 190.010909,37.749715 190.185251,38.184518 C190.359092,38.6188172 191.190335,40.5787056 191.190335,40.5787056 L188.21105,43.5064463 L177.424879,36.7143498 C177.424879,36.7143498 177.214071,36.5818432 176.462756,36.8282148 C175.707944,37.0720672 174,37.9779488 174,37.9779488 C174,37.9779488 174.390644,38.0147282 174.806265,38.5296398 C175.218889,39.0470704 183.301024,47.5652795 183.301024,47.5652795 C183.301024,47.5652795 182.384359,48.2862564 181.938266,48.6590887 C181.116015,49.3402633 180.477597,49.7871581 180.767833,49.9997733 C180.911202,50.1075923 236,11.7275361 236,11.7275361" id="Fill-1"></path>
                    <path d="M235.732,11.21785 C235.732,11.21785 236.0685,11.60035 235.304,13.21785 C234.643,14.60935 233.4505,15.96135 232.967,16.59735 C232.487,17.23685 230.814,18.81485 230.288,19.29785 C229.762,19.78435 228.487,20.78135 228.196,20.98335 C227.9055,21.18185 216.761,28.96235 216.761,28.96235 L218.856,38.25335 L226.1105,57.66185 C226.1105,57.66185 225.866,58.50585 225.19,59.15435 C224.517,59.80235 223.462,60.83335 223.462,60.83335 C223.462,60.83335 223.5845,60.56435 223.297,59.96485 C223.0065,59.36835 207.6015,35.25935 207.6015,35.25935 C207.6015,35.25935 205.9715,36.27185 205.1025,36.79485 C204.234,37.31485 201.249,38.76735 201.249,38.76735 L201.8425,39.64835 C201.8425,39.64835 202.292,39.46135 202.5185,39.36685 C202.745,39.27185 203.2035,39.20185 203.2035,39.20185 L204.604,41.24135 C204.604,41.24135 204.6135,41.48335 204.057,42.04885 C203.5,42.61485 202.8335,43.20485 200.812,44.46185 C198.9615,45.60885 196.151,46.86885 196.151,46.86885 L194.94,45.12585 C194.94,45.12585 195.1265,44.93585 194.787,44.61785 C194.4475,44.29985 192.9305,42.82885 192.9305,42.82885 L189.1475,44.57185 L191.5725,57.06535 C191.5725,57.06535 191.6185,57.30985 191.12,57.92785 C190.6245,58.54235 189.172,59.81785 189.172,59.81785 C189.172,59.81785 189.279,59.43885 188.9485,58.86685 C188.6185,58.29785 183.627,47.71585 183.627,47.71585 C183.627,47.71585 182.627,48.31535 182.1255,48.59985 C181.1955,49.12585 180.5565,49.56335 180.4615,49.21785 C180.416,49.04335 235.732,11.21785 235.732,11.21785" id="Fill-3"></path>
                    <path d="M20.3008747,73.1580674 C20.8995325,72.2958421 20.7012917,71.0221794 21.2999495,69.4745572 C21.2005831,69.114923 21.2005831,68.8803141 21.2005831,68.3378742 C21.5493493,68.295535 21.5557441,64.4715583 21.799241,64.295228 C21.8021924,63.609333 21.9527177,62.5643019 21.9556692,61.3793025 C22.7501083,60.8826886 22.9970485,60.7028716 23,59.8376576 C23,58.8807917 22.1573534,59.5602113 22.1573534,58.6526582 C22.1603049,56.6537499 22.2596713,55.1942929 22.2626228,53.6526479 C22.06389,53.3328625 21.8656492,52.9244137 21.8656492,52.6474656 C21.8686007,52.1902022 21.9168081,51.5595972 22.019126,51.0111801 C21.8203932,49.786332 21.7239783,48.7353237 21.7239783,47.9642522 C21.5286889,47.6444667 21.47753,47.236018 21.2305898,46.5047951 C20.8847751,45.3686103 19.2958969,45.3686103 19.0460052,45.0941527 C18.7513495,44.7315299 17.5599368,44.6832134 17.5599368,44.0491216 C17.5599368,43.4095507 18.6549346,41.5934482 18.6549346,40.8622253 C18.6549346,40.1828057 17.5628883,40 17.0694998,40 C16.3262196,40 16.1245354,40.7710715 13.690551,41.9072563 C13.341293,42.9492987 12.8931604,43.5435418 12.0534654,43.631707 C11.0096265,43.7203702 10.2633948,44.0401557 10.2604433,45.4019835 C10.2604433,45.8104323 10.8531982,45.767595 10.8561497,46.2213716 C10.8561497,46.6298203 9.61652954,47.2180861 9.36368638,48.5430539 L8.86734641,49.3141254 C8.66566217,50.444333 7.62133139,51.90379 7.62133139,53.040473 C6.77622526,54.6274457 6.02655022,57.04078 5.92767575,57.814342 C4.83513751,59.2190072 4.63345328,61.1780668 4.23352821,61.2697187 C2.10305404,61.5835269 1.80249535,62.0343148 1.15218668,64.1761801 L1.30271198,64.8555997 C1.30271198,65.0842314 1.05331221,65.3093763 1.05331221,65.7208137 C1.05036074,66.5860276 1.35091943,66.5860276 2.49117321,66.5860276 C2.49117321,67.3570991 1.34501648,69.4989645 1.34501648,70.9489575 C0.995758421,71.4490581 0.698151202,72.2684461 0.746358652,72.8597006 C0.348893142,73.9047316 0.000126995239,74.7241196 0.000126995239,75.766162 C-0.00577595788,76.8629962 0.192464884,76.999976 0.938696541,76.999976 C1.18563675,77.0029646 1.63376927,76.7260165 2.22947562,76.6343646 C2.77697453,76.134762 3.52664957,73.8648829 3.62257256,72.7740259 C4.86514419,71.1805778 4.32354824,69.4989645 5.36492756,68.2253018 C6.21347707,67.2749113 6.31579492,65.2700257 6.61340214,65.2700257 C8.74682778,65.2730144 9.34548561,64.276798 11.6264851,63.6885322 C12.5709576,63.6432043 13.961103,63.0091126 14.2621536,63.0091126 C16.2932614,63.0121012 16.7925529,62.329693 17.8845992,62.3326816 C17.8786963,66.8789153 17.8757448,67.3356805 18.077429,67.3356805 C18.0744775,67.7894571 18.0744775,69.1547717 17.8757448,69.3829052 C17.9239522,69.745528 17.9721597,70.2451306 17.9721597,71.0191907 C17.9692082,72.2928534 17.7704754,73.837487 17.767524,74.3859041 C17.767524,74.9706831 17.9657648,75.3851092 18.2638639,75.3851092 C18.709045,75.3880978 20.2979232,74.3859041 20.3008747,73.7946497 L20.3008747,73.1580674 Z M15.0565928,60.3253055 C10.8379489,60.3218188 10.5880572,60.7272789 9.99235089,60.7272789 C9.64653622,60.7272789 8.85209711,60.7272789 8.50333096,60.635627 C8.50628244,59.1338307 9.69769515,58.9998396 10.0494128,57.0925832 C10.6903751,55.9559003 10.9943772,55.3163294 10.9973287,54.9537066 C10.9973287,54.1796464 12.8838141,52.3182161 13.1337058,50.5877881 C13.83173,49.8625426 14.0304627,49.2289489 14.6232176,49.2289489 C17.1565683,49.8226939 17.1536168,51.7787649 17.8486896,52.1443763 C17.7493232,52.6409902 17.7493232,52.9184364 17.7493232,53.4608763 C17.7434202,54.8286814 17.8427866,55.6027416 18.0410275,55.6450808 C17.8909941,55.9653644 17.8939456,56.4221296 17.8909941,56.9645694 C17.8939456,57.3730182 18.0892349,57.7839574 18.0892349,58.0554264 C18.0862834,58.3752119 17.9357581,58.923629 17.9387096,59.7858543 C16.9942371,60.0114974 15.8028244,59.9168568 15.0565928,60.3253055 L15.0565928,60.3253055 Z" id="Fill-6"></path>
                    <path d="M38.1438822,68.9399747 C38.1468098,68.0802261 39.2807612,67.6333343 39.6242645,65.4763173 C40.4122729,64.7522146 40.9104503,63.0899352 40.9582676,62.1423867 C41.5520794,61.7832949 41.9970724,59.2612669 42,58.5855035 C42,58.1356523 41.7521311,58.0000063 41.4569329,58.0000063 C40.5703625,57.9970468 39.7823541,59.0348615 39.6837921,59.2129277 C39.2363595,62.0037812 38.7435493,62.3204528 37.905284,64.5711889 C37.4124738,65.2893725 37.3588014,65.8743765 36.6215378,66.7765453 C36.4219741,67.271283 34.1057662,71.4077443 33.2162682,71.4077443 C32.92107,71.4077443 32.7239459,71.3233972 32.7239459,70.5539148 C32.4287477,70.2402027 32.4316753,68.7530299 32.4375305,66.6349802 C32.4375305,65.3312994 32.3897133,64.112459 32.243334,63.8895064 C32.2940788,63.663101 32.4433857,61.726077 32.4433857,60.7819812 C32.4433857,60.4199299 32.2970064,59.3396949 31.8046841,59.3396949 C31.509486,59.3396949 29.4889642,60.4164771 29.2440228,60.9117081 C28.7009558,61.9011836 28.2530352,63.433736 27.7636405,63.8382076 C27.2683907,65.1838153 25.0029276,67.4828907 25,67.9322487 C25,68.695812 25.1971241,69.2354362 25.1941965,69.6009404 C25.1941965,69.7785132 25.1941965,69.8692727 25.1434517,70.0502984 L25.2927585,70.2737442 C25.6865188,70.2767038 27.8085302,67.3921312 28.593611,67.3921312 C28.5906834,71.0397738 28.7873195,71.4018252 29.1308229,71.5409239 C28.9844436,71.9449022 28.981516,72.1683481 28.981516,72.4460523 C28.9785884,73.8365465 29.7661089,75.9999759 31.6348842,75.9999759 C32.4702219,76.0029355 33.3597199,75.7346031 34.2492179,74.2952764 C36.4190465,72.6783768 36.5171206,71.0969918 38.1438822,68.9399747" id="Fill-8"></path>
                    <path d="M42.9825644,70.3183479 C42.8344661,70.1862817 42.8344661,69.9609345 42.8344661,69.696802 C42.8344661,69.2883296 42.9855264,67.6274373 43.0339052,67.3633048 C43.1820035,67.2764063 43.3266462,67.1531772 43.4688206,67.0181652 C43.4594411,67.0152195 43.4505552,67 43.4357453,67 C43.1365867,67.0029457 43.0339052,67.6726049 41.6931215,68.477276 C41.0923359,69.6427973 40.4431716,69.5976296 39.3472439,70.8981628 C38.8486461,71.2521395 38.0000426,72.1952593 38.0000426,72.5978403 C37.9970807,72.9130318 38.148141,73.0028761 38.5470192,72.9999304 C39.0451232,73.0028761 39.6942876,72.2433726 40.7902153,71.7956239 C42.4750808,70.492636 43.5956915,70.3154022 44,69.5195682 C43.5621226,69.8048116 43.2965329,70.2825084 42.9825644,70.3183479" id="Fill-10"></path>
                    <path d="M57.9908778,67.4912936 C57.9908778,67.4172896 58,67.3403834 58,67.2663794 C56.9245895,67.7075015 56.3605311,68.325653 56.0564565,68.6777768 C55.2349483,68.8997889 54.7763025,69.2074136 54.1625786,69.2074136 C52.7303872,69.2045115 52.7334279,67.4796852 52.2717413,67.1275613 C52.2717413,65.8462756 51.8161362,63.4587987 51.6113927,63.2396887 C50.6905534,62.177513 49.9283398,62.0033858 48.5949726,62 C48.0866613,62.3047225 47.8824245,62.4856213 47.5722684,63.0979685 C46.7538009,63.3668982 45.0641597,65.3079325 44.7575512,65.7485709 C44.1098723,65.9555888 43.5579769,66.7130419 43,67.2189781 C43.4743564,67.2987864 43.4804379,68.8818925 43.7282587,68.8818925 C43.7282587,69.2248263 43.6568011,69.4705391 43.5453071,69.6833612 C43.6633894,69.6098408 43.7840057,69.5387389 43.9330022,69.5029461 C44.1377458,69.1508223 45.929252,67.5623956 46.4902696,67.5652977 C47.6680519,67.5652977 47.1070343,68.6216692 48.3811068,69.6364436 C49.1965335,72.1985314 50.3712751,72.2899481 51.0377053,72.8669862 C51.0873708,72.8669862 52.3148186,73 52.6746402,73 C53.9081695,73 57.097912,71.103465 57.7643422,70.2279923 C57.7552199,70.2250901 57.7460977,70.2250901 57.7400162,70.2250901 C57.7400162,68.7662914 57.743057,67.9972298 57.9908778,67.4912936" id="Fill-12"></path>
                    <path d="M49,53.052035 C49.002784,53.8337771 49.2811847,53.9248383 49.4227051,54.5111449 C49.5136494,54.9478129 49.749362,54.9968049 51.4350785,55 C52.3264249,54.2736402 53.872941,54.0782046 54.2933261,51.797946 C54.7160312,51.3580829 55,49.21841 55,48.5895017 C54.7188153,48.3908711 54.7188153,48 54.1114376,48 C53.3620756,48 51.7700874,48.5341194 51.5343748,49.4559148 C50.1748511,49.9900342 49.002784,51.4917459 49,53.052035" id="Fill-14"></path>
                    <path d="M44,68.5341365 C43.8207478,68.5341365 43.813783,67.0709505 43.4706745,67 C43.3654692,67.1231593 43.2576979,67.2347166 43.1480938,67.3114681 C43.1121701,67.5542169 43,69.0638108 43,69.43195 C43,69.6724676 43,69.8799643 43.1099707,70 C43.3431085,69.966979 43.5403226,69.5332441 43.8654692,69.2739848 C43.9483138,69.0771977 44,68.8478358 44,68.5341365" id="Fill-16"></path>
                    <path d="M79,66.8827708 C78.7730471,66.9370293 78.6801335,67.422889 77.9596722,67.7637308 C77.5991876,67.7578117 77.447378,68.303849 76.4750852,68.303849 C75.2951331,68.3008895 74.6274752,67.2601137 74.6305215,66.3125638 C74.6335679,65.4587331 74.8386886,65.2382464 74.8386886,64.6951687 C74.3258867,64.2004302 74.7858853,62.7586352 73.8663959,62.7586352 C73.5094654,62.7586352 72.8448538,62.8005621 72.1741496,62.9332487 C71.4567346,63.5641266 70.0188583,64.1491313 69.2547327,65.2747476 C67.8168565,65.8567928 66.5343439,67.1180552 66.3322695,67.5254868 C65.099514,68.0143062 64.5344165,68.9613628 63.5093204,68.9613628 C63.5093204,68.4217378 63.9718575,68.2855984 64.0744179,67.8362398 C64.8974396,66.7106235 66.5373903,65.7635669 67.0496845,64.8189766 C67.6645391,64.5960237 68.4347574,63.8748795 68.8972946,63.2020747 C69.7203162,62.7073363 70.3351708,62.2574844 70.642852,61.7173661 C71.664394,60.7308488 72.7422935,60.4595566 73.4099514,59.243674 C74.5401465,58.9294682 75.4098789,58.0307509 75.5652426,56.9958943 C75.0559948,56.585503 74.950388,56.0029646 73.9283383,56.000005 C72.186335,55.9970455 70.8540654,57.3036877 69.1054617,58.2477847 C68.5931675,58.787903 68.0311163,59.2826414 67.4162617,59.4182875 C66.1829985,60.7219702 64.1861174,61.394775 63.6210198,62.3842518 C62.5933851,62.9243701 62.2887503,63.235123 61.4657286,64.3153595 C60.9036774,64.4510056 59.9811417,65.712268 59.0032639,66.2523862 C58.6179009,66.454129 58.3757163,66.665737 58.2269529,66.97649 C58.2112135,67.8091106 58.1304852,68.6659009 58.1304852,69.4926024 C58.1304852,69.5651114 58.0776819,69.6583373 58,69.7673474 C58.1705955,69.770307 58.5869297,69.8605733 58.5899761,70.0356802 C58.5899761,70.2591263 58.0746355,70.8895109 58.0746355,71.7887214 C58.0746355,72.0629732 58.0746355,72.3737262 58.431566,73.2339693 C58.7392471,73.4598818 59.8135925,74 60.2766374,74 C60.7361282,74 61.096105,73.6862875 61.8104736,73.6379481 C62.6334953,72.9651433 64.0683252,72.6968106 65.0934213,71.4838876 C66.6831073,70.8110828 67.2482048,69.2785281 68.1209835,69.2361079 C68.4784217,68.6989492 69.8137376,67.6187127 70.170668,67.6187127 C70.8911293,67.6187127 70.3229854,70.0026318 71.2424748,70.5457096 C71.5994052,71.3541606 72.8291144,72.035844 73.5465293,72.035844 C73.8014071,72.0388036 74.1613839,71.9031574 74.3137013,71.9031574 C74.4660187,71.9001979 74.7762385,72.0388036 74.9813593,72.0388036 C75.6459708,72.0388036 76.4161892,71.6767517 77.9068688,70.7780344 C78.1647929,70.5092085 78.4628273,70.3311421 78.7111047,70.1683667 C78.5745267,69.516772 78.5714804,68.8952661 78.5745267,67.8544904 C78.5745267,67.4411396 78.7298905,67.1604754 79,66.8827708" id="Fill-18"></path>
                    <path d="M78.006,70 C78.003,70.006 78,70.006 78,70.006 C78,70.006 78.003,70.006 78.006,70" id="Fill-20"></path>
                    <path d="M58.2475,67 C58.003,67.5546129 58,68.397667 58,69.9968187 C58.006,69.9968187 58.015,69.9968187 58.024,70 C58.1005,69.883351 58.1525,69.78579 58.1525,69.704666 C58.1525,68.8191941 58.232,67.8950159 58.2475,67" id="Fill-22"></path>
                    <path d="M92.364631,70.1545235 C92.2176682,70.0189148 92.2176682,69.7955302 92.2176682,69.5272714 C92.2176682,69.1199521 92.3705095,67.451718 92.4185173,67.1834593 C92.6134879,67.0690548 92.8079686,66.8880788 93,66.6888572 C92.5625408,66.7006921 92.2597975,67.41572 90.9351731,68.1277892 C90.7377531,68.4862894 87.9180274,70.7334496 87.3727956,70.7334496 C87.0759308,70.7334496 86.9769758,70.5495148 86.9769758,70.2388475 C86.9799151,68.9720153 87.327727,66.5922051 87.7740039,65.3766577 C87.7769432,64.0738275 88.6190398,62.5836107 88.7689419,61.5490393 C89.8564664,58.6716683 90.1562704,57.3653863 90.2552253,56.9615188 C90.4531352,56.1952061 92.5801764,56.9161515 92.5801764,55.8362128 C92.5836055,54.261672 92.7839647,53.4051179 92.7839647,52.9105158 C92.7839647,52.509114 92.040823,52.5968898 92.0442521,52.1895705 C92.040823,51.5139924 92.786904,50.4340536 92.7903331,49.6682341 C92.7903331,48.6336627 92.4454605,48.1356087 91.2589811,48 C88.7331809,49.4872581 89.1765186,52.412955 87.4443174,52.4065444 C87.0969954,52.4099963 86.7521228,52.3616703 86.506695,52.316303 C86.0124102,52.4519117 85.5146963,52.4519117 84.9724037,52.4519117 C84.3791639,52.3133443 83.5400065,52.3133443 83.0937296,52.3103855 C82.8478119,52.3103855 82.452482,52.4459943 82.0062051,52.4459943 C81.7122796,52.4459943 81.5148596,52.3074268 79.4353364,52.3074268 C78.3982691,52.304468 78.2483671,53.4322397 78.2483671,55.4140998 C78.2483671,55.6853173 78.2963749,55.9511104 80.175049,56.3608954 C80.4239059,56.3608954 80.6188766,56.2252866 80.9152515,56.2252866 C81.2121163,56.2252866 81.406597,56.4516299 82.1977466,56.4516299 C83.0398432,56.4545887 85.0654801,56.3702647 85.661659,56.3702647 C85.9585238,56.3702647 86.0569889,56.5029147 86.0569889,56.6385234 C86.0540496,56.9551082 83.6272044,60.3759004 83.0339647,61.5007133 C82.041966,62.4420845 81.2537557,63.9258907 80.2112998,64.8702207 C79.243305,66.0073616 78.4521555,66.4807594 78,66.9600747 C78.0146963,66.9571159 78.0240039,66.9393635 78.0387002,66.9393635 L78.1827237,67.0749723 C78.1827237,67.656857 78.2787394,68.1997851 78.2787394,68.384213 C78.2816786,68.516863 78.1317766,68.7397545 78.1317766,69.0114651 C78.1317766,69.1894824 78.2307315,69.3704584 78.2307315,69.6416759 C78.2277923,69.7501629 78.1827237,69.846815 78.1048334,69.9340977 C78.8239713,69.2614783 79.5641737,68.89065 82.1889288,66.3180289 C83.3274004,65.1443969 83.7232201,64.3815361 84.019595,64.3844948 C84.0705421,64.3844948 84.1636185,64.4688188 84.1665578,64.5595534 C84.1665578,64.7434881 83.4234161,65.4161075 83.0246571,69.5119846 C82.77629,69.7836953 82.6773351,70.3685388 82.5244938,73.0654268 C82.4225996,74.464909 82.7224037,75.0048784 83.2166884,75.1824026 C84.3522208,75.5053979 84.4482364,75.9970413 84.9454605,76 C85.3412802,76 88.0615611,74.0245505 89.0986283,72.8509184 C90.0391901,72.5372924 91.4235794,70.8301016 91.7713912,70.7398602 C92.2867407,70.3685388 92.6850098,70.0401191 92.9519922,69.7082475 C92.739386,69.9252215 92.5625408,70.1303605 92.364631,70.1545235" id="Fill-24"></path>
                    <path d="M78.012,70.752 C78.1435,70.465 78.263,70.22 78.388,70 C78.2935,70.202 78.1555,70.403 78,70.611 C78.003,70.654 78.006,70.703 78.012,70.752" id="Fill-26"></path>
                    <path d="M78.7834395,68.8803699 C78.7834395,68.6338007 79,68.4342184 79,68.3111575 C79,68.1442422 78.8570418,67.6515513 78.8570418,67.1230609 L78.6489738,67 C78.6277424,67 78.6142958,67.0165573 78.5930644,67.0192422 C78.2165605,67.2707339 78,67.525358 78,67.900358 C78,68.8445704 78,69.4088604 78.1903751,70 C78.4111819,69.9069212 78.6058033,69.8165274 78.7402689,69.7261337 L78.7487615,69.7207637 C78.8570418,69.6384248 78.9263977,69.5511635 78.9263977,69.4522673 C78.9263977,69.2061456 78.7834395,69.0446002 78.7834395,68.8803699" id="Fill-28"></path>
                    <path d="M99,53.0497301 C99,53.8311155 99.2780658,53.9253289 99.4201161,54.5081743 C99.5111025,54.944643 99.7441393,54.9968063 101.433424,55 C102.325184,54.2675842 103.869632,54.0786252 104.292534,51.7930195 C104.713114,51.3533572 105,49.2178542 105,48.5860391 C104.718685,48.3906927 104.72147,48 104.111025,48 C103.361315,48 101.768588,48.5338758 101.532766,49.4552506 C100.172611,49.99232 99.0027853,51.4933465 99,53.0497301" id="Fill-30"></path>
                    <path d="M107.481861,69.6450024 C107.584978,69.428785 107.638068,69.1182446 107.638068,68.9407238 C107.638068,68.7661053 107.588041,68.6330856 107.481861,68.5474693 L107.481861,67.748384 C107.647257,67.639066 107.762626,67.5147531 108,67.2840244 C107.996937,67.27822 108,67.2690295 108,67.263225 C106.91982,67.7038829 106.351654,68.3225452 106.042302,68.6746845 C105.217874,68.8962227 104.752825,69.2072468 104.131568,69.2072468 C102.692009,69.2043446 102.698135,67.4760565 102.233086,67.1244009 C102.233086,65.845961 101.774163,63.4583791 101.567928,63.233455 C100.643445,62.1775208 99.8695549,62 98.5295399,62 C98.0144637,62.3047359 97.8051661,62.4822567 97.4963245,63.1004353 C96.6749592,63.3635724 94.973523,65.3017897 94.6611081,65.7482521 C94.0679281,65.9349633 93.5559148,66.5739413 93.0500272,67.0707093 C93.056153,67.067807 93.0592159,67.067807 93.0622788,67.067807 C93.2685135,67.067807 93.3746937,67.1152104 93.3716308,67.7275845 C93.3716308,67.9970098 93.2685135,68.2635328 93.2685135,68.4792665 C93.2685135,68.7486918 93.3716308,68.9673277 93.3716308,69.1922519 C93.3685679,69.4911833 93.2276749,69.7606086 93,70.0295502 C93.2154234,69.8167187 93.4747482,69.5859901 93.8336169,69.4998901 C94.0398516,69.1477508 95.8413422,67.5592542 96.4095086,67.5621565 C97.596379,67.5621565 97.0277022,68.6214766 98.3141165,69.6362957 C99.132419,72.1984961 100.315716,72.2899169 100.987,72.8640781 C101.04009,72.8640781 102.273414,72.9970978 102.635856,73 C103.803839,73 106.716649,71.319599 107.616118,70.3903962 C107.572216,70.4053911 107.522189,70.4348973 107.481861,70.4407018 L107.481861,69.6450024 Z" id="Fill-32"></path>
                    <path d="M93.9068518,68.6607854 C93.9068518,68.4063745 93.997313,68.0933409 94,67.7763233 C94,67.0557769 93.9068518,67 93.7286162,67 C93.7232423,67 93.7205553,67 93.7151814,67.0034149 C93.5396328,67.2333523 93.364532,67.4388162 93.1862965,67.5708594 C93.1397223,67.8810472 93,69.8059192 93,70.2760387 C93.002687,70.5862265 93,70.8468981 93.1343484,71 C93.3179579,70.9760956 93.4769369,70.7359135 93.6712942,70.4849175 C93.8710255,70.168469 93.997313,69.8514513 93.997313,69.4997154 C93.997313,69.2350598 93.9068518,68.9778031 93.9068518,68.6607854" id="Fill-34"></path>
                    <path d="M128.077226,70.163575 C127.974696,70.1604592 127.929346,70.0680238 127.878081,69.9698761 C127.974696,69.8301844 127.929346,69.3565829 128.128492,69.0740838 C128.128492,68.0292524 128.131449,67.6953426 127.932304,67.2191446 C127.9535,67.1589058 128.001807,67.072702 128.037792,67 C127.812028,67.2887307 127.456129,67.7275392 126.687151,68.2162004 C126.090207,69.4490183 125.43904,69.3981269 124.344726,70.7768681 C123.846862,71.1512834 123,72.1488585 123,72.5746844 C123,72.9018433 123.147387,72.999991 123.545679,72.999991 C124.04305,73.0031068 124.688301,72.1966341 125.785573,71.7230326 C127.477325,70.3380597 128.598751,70.1573434 129,69.3025757 C128.888104,69.4043585 128.800854,69.4869272 128.773743,69.5030255 C128.57164,69.7377491 128.273414,70.1604592 128.077226,70.163575" id="Fill-36"></path>
                    <path d="M123.573883,69.6932147 C124.116869,68.1436394 125.994146,67.689668 126,62.9672713 C126,62.5566064 125.599957,62.1912392 125.409204,61.5117755 C124.722788,61.1040973 124.770598,60.1020751 122.010299,60.0990884 C121.073124,60.0961018 120.339386,60.7327567 119.599306,60.7780543 C119.599306,60.1389105 120.193029,59.7307345 120.193029,59.5480509 C120.193029,59.2802476 119.748103,59.0029867 118.223547,59 C117.778621,59 115.859876,60.9975733 114.529,62.0419065 C113.83673,62.1758081 113.443029,63.1803192 113.147387,63.3147186 C109.886058,65.8842361 108.850336,66.9071649 108.366869,67.4158915 C108.361015,68.3198519 108.265395,69.2671188 108.262467,70.1680926 C108.262467,70.2746166 108.160993,70.4329092 108,70.6126062 C108.78789,70.3233986 109.954358,68.6215039 111.124241,68.4935756 C111.124241,69.2183368 110.77835,69.2641322 110.775423,70.5364465 C110.772008,71.0815107 110.676876,71.218399 110.673948,71.7634633 C110.676876,72.6280994 111.216934,73.7640233 112.392671,74.1781725 C112.687825,74.6346327 112.887847,74.7655477 115.054423,75 C115.495935,74.8143297 117.217585,74.8143297 117.808868,74.3638428 C118.154759,74.0930529 120.222788,73.4106026 120.962869,72.0954796 C122.783066,71.0023644 121.16289,71.6449927 123.573883,69.6932147 M116.433109,72.0009022 C115.552526,71.9979156 115.102233,71.49566 115.10516,70.6798059 C115.108088,68.7678499 116.489701,66.6821703 116.74046,66.6786859 C118.411373,66.685157 118.217693,64.1853281 120.777971,64.1883147 C122.007372,64.1913014 122.353263,65.0071555 122.350336,66.0091777 C122.347409,67.2332079 121.660993,67.4611891 121.660993,68.0948574 C121.660993,68.5513175 121.11508,69.1391905 120.622832,69.3706561 C120.124241,70.229319 117.271737,72.0009022 116.433109,72.0009022" id="Fill-38"></path>
                    <path d="M108,67 C107.541872,67.2220349 107.325123,67.3374196 107.005911,67.4413117 L107.005911,68.2034937 C107.204926,68.2821024 107.300493,68.4085198 107.307389,68.5772295 C107.307389,68.7431811 107.204926,69.038768 107,69.2437941 L107,70 C107.077833,69.9972418 107.174384,69.9664419 107.259113,69.9526509 C107.590148,69.7839412 107.795074,69.6405149 107.795074,69.5416794 C107.795074,68.709623 107.994089,67.8352743 108,67" id="Fill-40"></path>
                    <path d="M152.996825,67 C152.543915,67.2439797 152.265608,67.6318124 152,68 L153,67.2325729 C153,67.1552598 152.996825,67.0855513 152.996825,67" id="Fill-42"></path>
                    <path d="M150.966964,69.8273329 C150.903576,69.6456358 150.485112,68.5433739 150.485112,68.5433739 L150.494522,68.5066318 L150.554939,68.4663665 C150.494522,68.4698898 150.443018,68.4880091 150.379135,68.4880091 C148.831562,68.4849892 148.786002,66.0036416 148.034748,65.1324016 C147.934713,64.4428588 147.237934,64.0734249 146.835318,63.1961451 C146.238574,62.9651231 145.638859,62.8760362 144.990611,62.872513 C143.439572,62.8694931 142.539752,64.0643652 141.891505,64.387494 C140.189423,66.2190608 139.335163,66.4067976 137.332976,68.8358005 C137.135877,69.2515394 136.836267,69.3411297 136.736232,69.3376065 C136.639168,69.3411297 136.639168,69.2515394 136.642139,69.1594326 C136.639168,68.2881927 138.090172,65.711215 138.093143,64.7966899 C138.54132,64.2455589 139.044467,61.9922134 139.044467,61.2100604 C139.047438,60.1973887 138.347688,59.0030199 137.151229,59 C136.50001,59 135.948827,59.5048259 134.948971,59.686523 C134.300724,59.8279548 133.749541,61.2503256 130.896065,63.6360433 C130.708375,64.107147 128.533355,66.2100011 128,67.2322358 C128.169862,67.0258763 128.266925,66.8965241 128.394198,66.8965241 C128.893878,66.8965241 128.887935,68.6450437 129.141985,68.6450437 C129.141985,68.9898151 129.075625,69.2454996 128.966676,69.4639388 C129.526773,68.9716958 130.953511,67.622809 131.489838,66.8965241 C131.69585,66.579435 132.141056,66.0715892 132.989373,66.077629 C133.140416,66.0746091 133.291955,66.163696 133.288983,66.3056311 C133.291955,66.6227202 132.89231,67.49698 132.89231,67.7768237 C132.889338,69.2887848 131.88354,70.3905434 131.88354,71.1696766 C131.88354,71.7671126 131.637909,72.1395664 131.583435,72.3242834 C131.583435,72.5090003 131.132286,73.5619373 131.135258,74.0204581 C131.135258,74.2514802 131.18379,74.4331772 131.18379,74.6209141 C131.18379,74.8514328 131.132286,74.941023 131.132286,75.12574 C131.132286,75.8615879 131.377422,75.9999998 132.380249,75.9999998 C132.783361,75.9999998 134.076388,76.0030197 134.430968,75.2671718 C134.67957,74.670239 137.581082,72.7918639 138.832511,70.5848234 C140.386026,69.6733182 142.185667,67.5523448 143.088459,67.5553647 C143.385098,67.5583846 143.936281,68.0204286 144.084848,68.6143414 C145.629449,69.3995143 145.978086,72.6197298 148.325444,72.6227497 C149.446134,72.6227497 150.676268,71.8869018 152,70.5259354 L151.918288,70.5848234 C151.918288,70.5848234 151.030353,70.0150697 150.966964,69.8273329" id="Fill-44"></path>
                    <path d="M129,68.5419441 C128.804563,68.5419441 128.809125,67 128.425475,67 C128.325475,67 128.250951,67.1140701 128.123194,67.2956059 C128.095437,67.3581891 128.058175,67.4314248 128.041825,67.4833555 C128.195437,67.8903684 128.193156,68.1726587 128.193156,69.0687972 C128.039544,69.310253 128.074525,69.7146028 128,69.834443 C128.039544,69.915668 128.074525,69.9973369 128.153232,70 C128.304563,69.9973369 128.534981,69.6360408 128.690494,69.4349756 C128.711787,69.42166 128.779087,69.3510874 128.865019,69.2640923 C128.948669,69.0714603 129,68.8486462 129,68.5419441" id="Fill-46"></path>
                    <path d="M152,68 L151,69 C151.47087,68.917232 151.731304,68.4857531 152,68" id="Fill-48"></path>
                    <path d="M152.831677,67 L152.032354,67.5270564 C151.770988,67.8386769 151.520195,68.1128681 151.059632,68.1685768 L151.008036,68.2033947 L151,68.2351661 C151,68.2351661 151.356947,69.1909183 151.411503,69.3454229 C151.465638,69.5103728 152.223937,70 152.223937,70 L152.29372,69.949514 C152.526327,69.7075294 152.759357,69.4759901 153,69.1830843 C152.883273,68.5493979 152.836752,67.9026549 152.831677,67" id="Fill-50"></path>
                    <polygon id="Fill-52" points="196 41.5195801 194.341398 39 149 69.4804199 150.658602 72"></polygon>
                    <path d="M68.9681237,1.03994315 L40.0483106,1 L40,37.9939327 L44.7581017,38 L44.7733836,23.4369286 L68.0152216,23.4677708 C78.3517193,23.4834447 78.9881376,19.3455363 78.9999688,11.1187636 C79.0122929,2.48446959 75.3727297,1.04904412 68.9681237,1.03994315 L68.9681237,1.03994315 Z M74.2389093,14.1281515 C74.2329937,17.9596606 72.0013395,19.3885131 68.2143796,19.3824458 L44.782257,19.3485699 L44.7975389,5.094426 L67.8431767,5.12526818 C71.9683109,5.13133549 74.2477827,6.20777819 74.2448249,10.5995026 L74.2389093,14.1281515 Z" id="Fill-54"></path>
                    <path d="M110.968124,1.0369095 L82.0483106,1 L82,37.9939327 L86.7551439,38 L86.7763414,23.433895 L110.018179,23.4647372 C120.351719,23.480411 120.991095,19.3425026 120.999969,11.1157299 C121.012293,2.48093032 117.375687,1.04601047 110.968124,1.0369095 L110.968124,1.0369095 Z M116.238909,14.1251179 C116.232994,17.9566269 114.00134,19.3854794 110.217337,19.3824458 L86.782257,19.3455363 L86.7975389,5.094426 L109.849585,5.12223452 C113.974226,5.12526818 116.25074,6.20474453 116.244825,10.5995026 L116.238909,14.1251179 Z" id="Fill-56"></path>
                    <path d="M124.2445,10.7364693 C124.214,20.4614293 128.991,21.372416 143.573,21.363296 L152.641,21.357216 C158.5925,21.354176 160.342,22.5129227 160.3235,27.1246027 C160.3085,32.3929227 158.2565,33.9149493 151.332,33.9210293 L136.5055,33.9271093 C130.56,33.9331893 128.716,32.210016 128.725,28.615216 L128.734,26.0307093 L124.2475,26.0337493 L124.2355,28.7175627 C124.211,36.7223893 130.352,37.9839893 137.325,37.9779093 L150.589,37.9682827 C157.663,37.9682827 164.7825,37.305056 164.8135,28.286896 L164.8165,25.906576 C164.838,19.680656 160.9475,16.891456 151.632,16.900576 L137.49,16.909696 C130.028,16.9132427 128.716,15.4469493 128.731,11.089616 C128.7525,5.06180267 132.022,4.553616 141.2365,4.547536 L146.3075,4.544496 C158.8375,4.538416 159.4215,5.59836267 159.498,11.4245227 L163.9845,11.4214827 L163.9905,10.1568427 C164.009,3.62084267 161.0455,0.481536 149.1975,0.490656 L138.909,0.497242667 C129.0555,0.503322667 124.272,2.38102933 124.2445,10.7364693" id="Fill-58"></path>
                    <polygon id="Fill-61" points="3 37.9565657 37.9965191 38 38 33.9156566 7.80258578 33.8787879 7.82098458 20.9656566 36.6524117 21.0030303 36.6583789 16.9186869 7.82695177 16.8787879 7.83938339 5.08737374 37.8418697 5.13030303 37.8508205 1.04646465 3.04574838 1"></polygon>
                </g>
            </g>
        </g>
    </g>
</svg>